<?xml version="1.0" standalone="no"?>
<!DOCTYPE svg PUBLIC "-//W3C//DTD SVG 20010904//EN"
 "http://www.w3.org/TR/2001/REC-SVG-20010904/DTD/svg10.dtd">
<svg version="1.0" xmlns="http://www.w3.org/2000/svg"
 width="275.000000pt" height="147.000000pt" viewBox="0 0 275.000000 147.000000"
 preserveAspectRatio="xMidYMid meet">
<metadata>
Created by potrace 1.16, written by Peter Selinger 2001-2019
</metadata>
<g transform="translate(0.000000,147.000000) scale(0.100000,-0.100000)"
fill="#000000" stroke="none">
<path d="M0 735 l0 -735 1375 0 1375 0 0 735 0 735 -1375 0 -1375 0 0 -735z
m890 488 c0 -5 -116 -124 -257 -265 l-258 -258 263 0 262 0 0 -235 0 -235
-130 0 -130 0 0 130 0 130 -260 0 -260 0 0 107 0 108 262 262 263 263 122 0
c68 0 123 -3 123 -7z m640 -124 l0 -131 -130 -138 -130 -138 0 -121 c0 -66 3
-121 7 -121 4 0 63 55 130 122 l123 123 0 -128 0 -127 -260 0 -260 0 0 133 0
132 130 130 130 130 0 130 0 130 -130 -130 -130 -130 0 133 0 132 260 0 260 0
0 -131z m725 -474 c28 -27 30 -42 14 -78 -11 -24 -47 -47 -73 -47 -28 0 -66
41 -66 71 0 37 40 79 75 79 14 0 37 -11 50 -25z"/>
</g>
</svg>
