<?xml version="1.0" encoding="UTF-8"?>
<svg xmlns="http://www.w3.org/2000/svg" xmlns:xlink="http://www.w3.org/1999/xlink" width="148pt" height="38pt" viewBox="0 0 148 38" version="1.1">
<g id="surface1">
<path style=" stroke:none;fill-rule:nonzero;fill:rgb(0%,0%,0%);fill-opacity:1;" d="M 6.425781 8.300781 C 6.425781 8.53125 6.199219 8.761719 5.921875 8.761719 C 5.277344 8.761719 4.132812 9.914062 4.132812 10.5625 C 4.132812 10.835938 3.949219 11.066406 3.671875 11.066406 C 3.441406 11.066406 3.121094 12.3125 2.9375 13.835938 C 2.753906 15.355469 2.433594 16.601562 2.25 16.601562 C 2.019531 16.601562 1.835938 18.03125 1.835938 19.832031 C 1.835938 21.582031 2.019531 23.058594 2.25 23.058594 C 2.433594 23.058594 2.753906 24.164062 2.890625 25.457031 C 3.074219 26.792969 3.398438 27.945312 3.671875 28.039062 C 3.902344 28.132812 4.132812 28.40625 4.132812 28.636719 C 4.132812 28.914062 4.636719 29.652344 5.277344 30.34375 C 6.933594 32.097656 9.640625 31.957031 11.523438 29.929688 C 12.257812 29.144531 12.855469 28.085938 12.855469 27.578125 C 12.855469 26.332031 13.957031 25.363281 15.378906 25.363281 C 17.261719 25.363281 17.902344 26.378906 17.902344 29.238281 C 17.902344 31.265625 18.085938 31.867188 18.777344 32.28125 C 19.28125 32.511719 19.785156 32.742188 19.921875 32.742188 C 20.0625 32.742188 20.199219 27.117188 20.199219 20.292969 L 20.199219 7.839844 L 19.050781 7.839844 C 17.949219 7.839844 17.902344 7.976562 17.902344 10.605469 L 17.902344 13.375 L 16.113281 13.375 C 13.726562 13.375 12.855469 13.003906 12.855469 11.945312 C 12.855469 11.207031 11.980469 10.144531 9.914062 8.394531 C 9.089844 7.746094 6.425781 7.65625 6.425781 8.300781 Z M 10.28125 11.804688 C 10.421875 12.222656 10.558594 12.914062 10.558594 13.417969 C 10.558594 13.882812 10.789062 14.296875 11.015625 14.296875 C 11.292969 14.296875 11.476562 16.464844 11.476562 19.832031 C 11.476562 23.195312 11.292969 25.363281 11.015625 25.363281 C 10.789062 25.363281 10.558594 25.917969 10.558594 26.5625 C 10.558594 27.625 9.042969 29.46875 8.125 29.515625 C 7.621094 29.515625 6.199219 28.085938 5.554688 26.886719 C 4.910156 25.640625 4.867188 13.558594 5.507812 13.144531 C 5.785156 13.003906 5.96875 12.453125 5.96875 11.945312 C 5.96875 11.207031 6.289062 11.066406 7.988281 11.066406 C 9.410156 11.066406 10.097656 11.296875 10.28125 11.804688 Z M 10.28125 11.804688 "/>
<path style=" stroke:none;fill-rule:nonzero;fill:rgb(0%,0%,0%);fill-opacity:1;" d="M 23.410156 8.53125 C 23.410156 8.902344 23.640625 9.222656 23.871094 9.222656 C 24.605469 9.222656 24.46875 31.222656 23.777344 31.496094 C 22.953125 31.867188 24.238281 32.742188 25.617188 32.742188 L 26.625 32.742188 L 26.625 7.839844 L 25.019531 7.839844 C 23.917969 7.839844 23.410156 8.070312 23.410156 8.53125 Z M 23.410156 8.53125 "/>
<path style=" stroke:none;fill-rule:nonzero;fill:rgb(0%,0%,0%);fill-opacity:1;" d="M 32.132812 13.375 L 32.132812 18.90625 L 39.25 18.90625 C 44.574219 18.90625 46.457031 18.769531 46.59375 18.308594 C 46.6875 18.03125 46.824219 15.542969 46.914062 12.773438 L 47.054688 7.839844 L 45.585938 7.839844 C 44.160156 7.839844 44.070312 7.933594 44.070312 9.453125 L 44.070312 11.066406 L 35.347656 11.066406 L 35.347656 9.453125 C 35.347656 7.933594 35.253906 7.839844 33.742188 7.839844 L 32.132812 7.839844 Z M 32.132812 13.375 "/>
<path style=" stroke:none;fill-rule:nonzero;fill:rgb(0%,0%,0%);fill-opacity:1;" d="M 51.414062 13.835938 L 51.414062 19.832031 L 54.628906 19.832031 L 54.628906 14.296875 L 56.234375 14.296875 C 57.65625 14.296875 57.839844 14.15625 57.839844 13.144531 C 57.839844 12.128906 57.65625 11.992188 56.234375 11.992188 C 54.628906 11.992188 54.628906 11.992188 54.628906 9.914062 C 54.628906 7.839844 54.628906 7.839844 53.019531 7.839844 L 51.414062 7.839844 Z M 51.414062 13.835938 "/>
<path style=" stroke:none;fill-rule:nonzero;fill:rgb(0%,0%,0%);fill-opacity:1;" d="M 80.425781 20.152344 L 80.566406 32.511719 L 82.078125 32.652344 L 83.546875 32.789062 L 83.546875 20.753906 L 85.15625 20.753906 C 86.671875 20.753906 86.761719 20.660156 86.761719 19.136719 C 86.761719 17.617188 86.671875 17.523438 85.15625 17.523438 L 83.546875 17.523438 L 83.546875 7.839844 L 80.335938 7.839844 Z M 80.425781 20.152344 "/>
<path style=" stroke:none;fill-rule:nonzero;fill:rgb(0%,0%,0%);fill-opacity:1;" d="M 90.710938 8.578125 C 90.570312 8.992188 90.433594 11.898438 90.433594 15.035156 L 90.433594 20.753906 L 106.960938 20.753906 L 107.234375 19.554688 C 107.417969 18.90625 107.328125 18.167969 107.007812 17.847656 C 106.640625 17.476562 106.5 17.476562 106.5 17.894531 C 106.5 18.308594 104.710938 18.445312 99.84375 18.445312 L 93.1875 18.445312 L 93.1875 15.035156 C 93.1875 9.867188 92.777344 10.144531 99.890625 10.144531 L 106.042969 10.144531 L 106.042969 7.839844 L 98.511719 7.839844 C 92.085938 7.839844 90.9375 7.933594 90.710938 8.578125 Z M 90.710938 8.578125 "/>
<path style=" stroke:none;fill-rule:nonzero;fill:rgb(0%,0%,0%);fill-opacity:1;" d="M 109.714844 15.726562 C 109.714844 23.886719 109.945312 24.902344 111.734375 24.902344 C 112.5625 24.902344 112.605469 24.855469 112.515625 20.292969 C 112.46875 18.402344 112.605469 16.601562 112.789062 16.277344 C 113.019531 16.003906 113.800781 15.679688 114.535156 15.585938 C 115.542969 15.496094 115.957031 15.171875 116.050781 14.386719 C 116.1875 13.511719 116.003906 13.375 114.582031 13.375 C 113.203125 13.375 112.972656 13.1875 112.699219 11.992188 C 112.515625 11.207031 112.515625 9.960938 112.699219 9.222656 C 112.972656 7.886719 112.929688 7.839844 111.367188 7.839844 L 109.714844 7.839844 Z M 109.714844 15.726562 "/>
<path style=" stroke:none;fill-rule:nonzero;fill:rgb(0%,0%,0%);fill-opacity:1;" d="M 119.355469 8.714844 C 119.355469 9.960938 120.179688 10.144531 125.875 10.144531 C 131.152344 10.144531 132.4375 10.605469 132.117188 12.359375 C 131.980469 13.050781 131.289062 13.144531 126.285156 13.28125 C 121.972656 13.375 120.457031 13.558594 119.953125 14.113281 C 119.539062 14.480469 119.355469 14.941406 119.539062 15.082031 C 119.675781 15.265625 122.109375 15.3125 124.863281 15.265625 C 128.398438 15.171875 129.914062 15.3125 129.914062 15.679688 C 129.914062 16.507812 128.671875 17.523438 127.664062 17.523438 C 127.113281 17.523438 126.699219 17.707031 126.699219 17.984375 C 126.699219 18.261719 125.367188 18.445312 123.671875 18.445312 C 121.695312 18.445312 120.457031 18.675781 119.996094 19.09375 C 118.710938 20.429688 119.308594 20.753906 123.027344 20.753906 C 125.183594 20.753906 126.699219 20.566406 126.699219 20.292969 C 126.699219 20.015625 127.203125 19.832031 127.800781 19.832031 C 128.445312 19.832031 129.222656 19.507812 129.636719 19.136719 C 130.003906 18.769531 130.417969 18.445312 130.601562 18.445312 C 130.738281 18.445312 131.566406 17.707031 132.484375 16.832031 C 133.953125 15.355469 134.273438 15.21875 136.800781 15.21875 L 139.554688 15.21875 L 139.554688 17.707031 C 139.554688 21.074219 139.828125 21.675781 141.433594 21.675781 L 142.765625 21.675781 L 142.765625 7.839844 L 139.554688 7.839844 L 139.554688 10.332031 C 139.554688 12.957031 139.230469 13.375 137.027344 13.375 C 135.007812 13.375 134.503906 12.914062 134.503906 11.066406 C 134.503906 7.746094 134.734375 7.839844 126.652344 7.839844 C 119.8125 7.839844 119.355469 7.886719 119.355469 8.714844 Z M 119.355469 8.714844 "/>
<path style=" stroke:none;fill-rule:nonzero;fill:rgb(0%,0%,0%);fill-opacity:1;" d="M 61.054688 9.914062 C 61.054688 11.023438 61.144531 11.066406 64.496094 11.066406 L 67.941406 11.066406 L 67.664062 15.773438 C 67.480469 18.402344 67.160156 20.566406 66.929688 20.660156 C 66.746094 20.753906 66.5625 21.257812 66.5625 21.765625 C 66.5625 22.78125 65.1875 25.363281 64.636719 25.363281 C 64.453125 25.363281 64.269531 25.734375 64.269531 26.148438 C 64.269531 26.609375 63.578125 27.300781 62.753906 27.714844 C 61.699219 28.222656 61.238281 28.824219 61.144531 29.699219 C 61.007812 30.945312 61.054688 30.992188 62.433594 30.667969 C 64.085938 30.296875 67.480469 27.164062 67.480469 26.007812 C 67.480469 25.640625 67.757812 24.996094 68.125 24.625 C 68.492188 24.304688 68.859375 23.75 68.949219 23.425781 C 69.132812 22.875 72.988281 26.285156 72.988281 26.976562 C 72.988281 27.164062 73.265625 27.53125 73.585938 27.855469 C 73.863281 28.222656 74.460938 28.914062 74.828125 29.46875 C 76.066406 31.265625 77.992188 30.253906 77.257812 28.269531 C 77.074219 27.808594 76.066406 26.5625 74.964844 25.503906 C 73.863281 24.441406 72.988281 23.335938 72.988281 23.058594 C 72.988281 22.78125 72.253906 21.859375 71.382812 21.027344 C 70.234375 19.875 69.777344 19.046875 69.777344 18.03125 C 69.777344 17.246094 70.007812 16.601562 70.234375 16.601562 C 70.511719 16.601562 70.695312 15.355469 70.695312 13.835938 L 70.695312 11.066406 L 73.90625 11.066406 C 77.03125 11.066406 77.121094 11.023438 77.121094 9.914062 L 77.121094 8.761719 L 61.054688 8.761719 Z M 61.054688 9.914062 "/>
<path style=" stroke:none;fill-rule:nonzero;fill:rgb(0%,0%,0%);fill-opacity:1;" d="M 33.375 21.996094 C 33.191406 22.136719 33.050781 22.6875 33.050781 23.152344 C 33.050781 23.933594 33.648438 23.980469 42.234375 23.980469 L 51.414062 23.980469 L 51.414062 26.285156 L 33.050781 26.285156 L 33.050781 32.742188 L 54.628906 32.742188 L 54.628906 30.4375 L 45.628906 30.4375 C 38.054688 30.4375 36.539062 30.34375 35.945312 29.699219 C 34.613281 28.40625 36.128906 28.132812 44.894531 28.132812 C 54.582031 28.132812 54.628906 28.132812 54.628906 24.535156 C 54.628906 22.550781 54.488281 22.226562 53.617188 21.953125 C 52.195312 21.582031 33.742188 21.582031 33.375 21.996094 Z M 33.375 21.996094 "/>
<path style=" stroke:none;fill-rule:nonzero;fill:rgb(0%,0%,0%);fill-opacity:1;" d="M 100.992188 24.027344 C 100.992188 24.902344 100.808594 25.226562 99.292969 26.839844 C 97.6875 28.59375 95.53125 29.515625 93.1875 29.515625 C 91.398438 29.515625 91.351562 29.5625 91.351562 31.128906 C 91.351562 32.835938 91.996094 33.15625 93.554688 32.328125 C 93.96875 32.050781 95.117188 31.726562 96.082031 31.589844 C 97 31.453125 97.777344 31.128906 97.777344 30.898438 C 97.777344 30.621094 98.191406 30.4375 98.699219 30.4375 C 99.203125 30.4375 99.617188 30.207031 99.617188 29.976562 C 99.617188 29.699219 99.9375 29.515625 100.304688 29.515625 C 100.671875 29.515625 100.992188 29.191406 100.992188 28.777344 C 100.992188 28.175781 101.3125 28.085938 102.507812 28.316406 C 103.289062 28.5 104.066406 28.824219 104.113281 29.054688 C 104.207031 29.332031 104.800781 29.515625 105.398438 29.515625 C 105.996094 29.515625 106.5 29.699219 106.5 29.882812 C 106.5 30.066406 107.417969 30.527344 108.613281 30.851562 C 109.761719 31.175781 110.953125 31.773438 111.320312 32.097656 C 112.148438 32.925781 112.929688 32.925781 112.929688 32.097656 C 112.929688 31.726562 113.203125 31.359375 113.480469 31.265625 C 114.351562 30.945312 112.746094 29.515625 111.597656 29.515625 C 111.046875 29.515625 110.632812 29.285156 110.632812 29.054688 C 110.632812 28.777344 110.128906 28.59375 109.53125 28.59375 C 108.886719 28.59375 108.109375 28.269531 107.695312 27.902344 C 107.328125 27.53125 106.410156 27.207031 105.675781 27.207031 C 104.066406 27.207031 103.792969 26.65625 104.113281 24.535156 C 104.296875 23.105469 104.296875 23.058594 102.644531 23.058594 C 101.269531 23.058594 100.992188 23.242188 100.992188 24.027344 Z M 100.992188 24.027344 "/>
<path style=" stroke:none;fill-rule:nonzero;fill:rgb(0%,0%,0%);fill-opacity:1;" d="M 121.191406 27.902344 L 121.191406 32.742188 L 131.519531 32.742188 C 140.378906 32.742188 141.847656 32.652344 141.847656 32.050781 C 141.847656 31.683594 142.078125 31.359375 142.308594 31.359375 C 143.042969 31.359375 142.90625 24.488281 142.125 23.703125 C 141.574219 23.195312 139.507812 23.058594 131.335938 23.058594 L 121.191406 23.058594 Z M 138.820312 25.640625 C 139.371094 25.824219 139.554688 26.5625 139.554688 28.175781 L 139.554688 30.4375 L 132.164062 30.4375 C 124.128906 30.4375 123.488281 30.253906 123.488281 27.855469 C 123.488281 25.6875 124.449219 25.410156 131.613281 25.363281 C 135.191406 25.363281 138.40625 25.503906 138.820312 25.640625 Z M 138.820312 25.640625 "/>
</g>
</svg>
